# xmcd CD database file
#
# Track frame offsets:
#	150
#	48611
#	129840
#	152825
#
# Disc length: 2549 seconds
#
# Revision: 0
# Processed by: cddbd v1.5.1PL2 Copyright (c) Steve Scherf et al.
# Submitted via: CDex 1.51
#
DISCID=2c09f304
DTITLE=Leroy Jenkins - Driftwood - The Art of Improvisation
DYEAR=2005
DGENRE=Jazz
TTITLE0=TO LIVE - Allegro Moderato
TTITLE1=TO SING - Andante Cantabile
TTITLE2=TO RUN - Vivace
TTITLE3=TO BELIEVE - Pure Motion
EXTD=YEAR: 2005
EXTT0=
EXTT1=
EXTT2=
EXTT3=
PLAYORDER=
